<svg id="Layer_1" data-name="Layer 1" xmlns="http://www.w3.org/2000/svg" xmlns:xlink="http://www.w3.org/1999/xlink" viewBox="0 0 400 700"><defs><style>.cls-1,.cls-4{fill:none;}.cls-2{clip-path:url(#clip-path);}.cls-3{fill:#383c97;}.cls-4{stroke:#efefef;stroke-miterlimit:10;opacity:0.3;}.cls-5{fill:#efefef;opacity:0.1;}</style><clipPath id="clip-path"><path class="cls-1" d="M31.6,0H368.4A31.6,31.6,0,0,1,400,31.6V700a0,0,0,0,1,0,0H0a0,0,0,0,1,0,0V31.6A31.6,31.6,0,0,1,31.6,0Z"/></clipPath></defs><g class="cls-2"><path class="cls-3" d="M31.6,0H368.4A31.6,31.6,0,0,1,400,31.6V700a0,0,0,0,1,0,0H0a0,0,0,0,1,0,0V31.6A31.6,31.6,0,0,1,31.6,0Z"/><circle class="cls-4" cx="401.03" cy="-61.89" r="153.98"/><circle class="cls-5" cx="386.77" cy="-37.65" r="153.98"/><circle class="cls-4" cx="378.93" cy="-19.95" r="153.98"/><circle class="cls-4" cx="145.55" cy="676.62" r="153.98"/><circle class="cls-5" cx="131.3" cy="700.86" r="153.98"/><circle class="cls-4" cx="123.46" cy="718.56" r="153.98"/></g></svg>